<?xml version="1.0" encoding="UTF-8" standalone="no"?>
<!DOCTYPE svg PUBLIC "-//W3C//DTD SVG 1.1//EN" "http://www.w3.org/Graphics/SVG/1.1/DTD/svg11.dtd">
<svg version="1.1" xmlns="http://www.w3.org/2000/svg" xmlns:xlink="http://www.w3.org/1999/xlink" preserveAspectRatio="xMidYMid meet" viewBox="0 0 640 640" width="640" height="640"><defs><path d="M450.21 137.02C390.56 139.19 353.06 170.71 330.48 179.97C324.97 151.01 322.96 89.28 383.52 28.16C380.68 25.35 357.96 2.82 355.12 0C321.69 33.73 304.18 67.9 295.49 98.75C226.93 7.97 136.81 20.65 136.81 20.65C199.96 139.57 275.63 113.1 294 104.36C287.82 129.04 287.11 151.4 288.71 169.2C265.86 156.31 233.85 138.62 189.79 137.02C188.2 136.96 186.58 136.94 184.95 136.94C114.5 136.93 0 190.83 0 349.06C0 510.96 130.23 639.98 196.94 639.98C263.64 639.98 286.83 621.08 320 621.08C353.17 621.08 376.36 639.98 443.06 639.98C509.77 639.98 640 510.96 640 349.06C640 190.84 525.5 136.94 455.05 136.94C453.41 136.94 451.8 136.97 450.21 137.02ZM370.21 589.48C354.87 585.35 339.01 581.08 320 581.08C300.99 581.08 285.13 585.35 269.78 589.48C250.6 594.64 230.76 599.98 196.94 599.98C159 599.98 40 495.86 40 349.06C40 290.17 57.7 244.58 92.62 213.57C123.02 186.56 160.25 176.94 184.95 176.94C186.1 176.94 187.23 176.96 188.34 177C223.38 178.27 249.33 192.91 270.18 204.68C287.29 214.34 302.08 222.68 320 222.68C337.92 222.68 352.71 214.34 369.82 204.68C390.67 192.91 416.62 178.27 451.66 177C452.77 176.96 453.9 176.94 455.05 176.94C479.75 176.94 516.97 186.56 547.38 213.57C582.29 244.59 600 290.17 600 349.06C600 495.86 481 599.98 443.06 599.98C409.23 599.98 389.4 594.64 370.21 589.48Z" id="f6uhAjHlk"></path></defs><g><g><g><use xlink:href="#f6uhAjHlk" opacity="1" fill="#ff0000" fill-opacity="1"></use><g><use xlink:href="#f6uhAjHlk" opacity="1" fill-opacity="0" stroke="#000000" stroke-width="1" stroke-opacity="0"></use></g></g></g></g></svg>